<svg width="339" height="64" viewBox="0 0 339 64" fill="none" xmlns="http://www.w3.org/2000/svg">
<path fill-rule="evenodd" clip-rule="evenodd" d="M32 0C14.32 0 0 14.6822 0 32.8094C0 47.3276 9.16 59.5901 21.88 63.9373C23.48 64.2244 24.08 63.2401 24.08 62.3789C24.08 61.5997 24.04 59.0159 24.04 56.2681C16 57.7856 13.92 54.2585 13.28 52.413C12.92 51.4697 11.36 48.5579 10 47.7787C8.88 47.1635 7.28 45.6461 9.96 45.6051C12.48 45.5641 14.28 47.9837 14.88 48.968C17.76 53.9305 22.36 52.5361 24.2 51.6748C24.48 49.5422 25.32 48.1068 26.24 47.2866C19.12 46.4663 11.68 43.6365 11.68 31.0869C11.68 27.5189 12.92 24.566 14.96 22.2694C14.64 21.4491 13.52 18.0862 15.28 13.5749C15.28 13.5749 17.96 12.7136 24.08 16.9379C26.64 16.1996 29.36 15.8305 32.08 15.8305C34.8 15.8305 37.52 16.1996 40.08 16.9379C46.2 12.6726 48.88 13.5749 48.88 13.5749C50.64 18.0862 49.52 21.4491 49.2 22.2694C51.24 24.566 52.48 27.4779 52.48 31.0869C52.48 43.6775 45 46.4663 37.88 47.2866C39.04 48.3118 40.04 50.2804 40.04 53.3563C40.04 57.7445 40 61.2716 40 62.3789C40 63.2401 40.6 64.2654 42.2 63.9373C48.5525 61.7383 54.0725 57.5523 57.9831 51.9684C61.8937 46.3844 63.9981 39.6838 64 32.8094C64 14.6822 49.68 0 32 0Z" fill="white"/>
<path d="M143.64 46.4C141.293 46.4 139.293 45.96 137.64 45.08C136.013 44.2 134.76 42.96 133.88 41.36C133.027 39.76 132.547 37.88 132.44 35.72C132.413 34.5467 132.4 33.3067 132.4 32C132.4 30.6667 132.413 29.4 132.44 28.2C132.547 26.04 133.027 24.1733 133.88 22.6C134.76 21.0267 136.027 19.8 137.68 18.92C139.333 18.04 141.32 17.6 143.64 17.6C145.533 17.6 147.173 17.8667 148.56 18.4C149.947 18.9333 151.08 19.6133 151.96 20.44C152.867 21.24 153.533 22.08 153.96 22.96C154.413 23.84 154.653 24.6133 154.68 25.28C154.707 25.52 154.64 25.72 154.48 25.88C154.32 26.0133 154.107 26.08 153.84 26.08H151.48C151.213 26.08 151.013 26.0267 150.88 25.92C150.773 25.8133 150.667 25.6267 150.56 25.36C150.32 24.6667 149.92 23.9867 149.36 23.32C148.827 22.6533 148.093 22.1067 147.16 21.68C146.253 21.2267 145.08 21 143.64 21C141.533 21 139.827 21.5733 138.52 22.72C137.24 23.8667 136.547 25.76 136.44 28.4C136.36 30.7733 136.36 33.1467 136.44 35.52C136.547 38.1867 137.253 40.1067 138.56 41.28C139.867 42.4267 141.573 43 143.68 43C145.093 43 146.347 42.7467 147.44 42.24C148.56 41.7067 149.44 40.8933 150.08 39.8C150.72 38.7067 151.04 37.32 151.04 35.64V33.96H145.04C144.773 33.96 144.547 33.88 144.36 33.72C144.2 33.5333 144.12 33.2933 144.12 33V31.72C144.12 31.4267 144.2 31.2 144.36 31.04C144.547 30.8533 144.773 30.76 145.04 30.76H154.08C154.373 30.76 154.6 30.8533 154.76 31.04C154.92 31.2 155 31.4267 155 31.72V35.56C155 37.7467 154.547 39.6533 153.64 41.28C152.76 42.9067 151.467 44.1733 149.76 45.08C148.053 45.96 146.013 46.4 143.64 46.4ZM164.307 46C164.04 46 163.813 45.92 163.627 45.76C163.467 45.5733 163.387 45.3467 163.387 45.08V26.12C163.387 25.8533 163.467 25.64 163.627 25.48C163.813 25.2933 164.04 25.2 164.307 25.2H166.227C166.493 25.2 166.707 25.2933 166.867 25.48C167.027 25.64 167.107 25.8533 167.107 26.12V45.08C167.107 45.3467 167.027 45.5733 166.867 45.76C166.707 45.92 166.493 46 166.227 46H164.307ZM163.987 21.32C163.72 21.32 163.493 21.24 163.307 21.08C163.147 20.8933 163.067 20.6667 163.067 20.4V18.24C163.067 17.9733 163.147 17.76 163.307 17.6C163.493 17.4133 163.72 17.32 163.987 17.32H166.507C166.773 17.32 166.987 17.4133 167.147 17.6C167.333 17.76 167.427 17.9733 167.427 18.24V20.4C167.427 20.6667 167.333 20.8933 167.147 21.08C166.987 21.24 166.773 21.32 166.507 21.32H163.987ZM184.394 46C182.901 46 181.687 45.72 180.754 45.16C179.821 44.5733 179.141 43.76 178.714 42.72C178.287 41.6533 178.074 40.4 178.074 38.96V28.4H174.954C174.687 28.4 174.461 28.32 174.274 28.16C174.114 27.9733 174.034 27.7467 174.034 27.48V26.12C174.034 25.8533 174.114 25.64 174.274 25.48C174.461 25.2933 174.687 25.2 174.954 25.2H178.074V18.52C178.074 18.2533 178.154 18.04 178.314 17.88C178.501 17.6933 178.727 17.6 178.994 17.6H180.874C181.141 17.6 181.354 17.6933 181.514 17.88C181.701 18.04 181.794 18.2533 181.794 18.52V25.2H186.754C187.021 25.2 187.234 25.2933 187.394 25.48C187.581 25.64 187.674 25.8533 187.674 26.12V27.48C187.674 27.7467 187.581 27.9733 187.394 28.16C187.234 28.32 187.021 28.4 186.754 28.4H181.794V38.68C181.794 39.9333 182.007 40.92 182.434 41.64C182.861 42.36 183.621 42.72 184.714 42.72H187.154C187.421 42.72 187.634 42.8133 187.794 43C187.981 43.16 188.074 43.3733 188.074 43.64V45.08C188.074 45.3467 187.981 45.5733 187.794 45.76C187.634 45.92 187.421 46 187.154 46H184.394ZM204.619 46.4C202.299 46.4 200.352 46.0533 198.779 45.36C197.206 44.64 195.992 43.72 195.139 42.6C194.312 41.4533 193.872 40.24 193.819 38.96C193.819 38.7467 193.899 38.56 194.059 38.4C194.246 38.2133 194.459 38.12 194.699 38.12H196.739C197.059 38.12 197.299 38.2 197.459 38.36C197.619 38.52 197.726 38.7067 197.779 38.92C197.912 39.56 198.232 40.2 198.739 40.84C199.272 41.4533 200.006 41.9733 200.939 42.4C201.899 42.8 203.126 43 204.619 43C206.912 43 208.592 42.6 209.659 41.8C210.752 40.9733 211.299 39.88 211.299 38.52C211.299 37.5867 211.006 36.84 210.419 36.28C209.859 35.6933 208.992 35.1733 207.819 34.72C206.646 34.2667 205.126 33.7733 203.259 33.24C201.312 32.68 199.699 32.0667 198.419 31.4C197.139 30.7333 196.179 29.9067 195.539 28.92C194.926 27.9333 194.619 26.68 194.619 25.16C194.619 23.72 195.006 22.44 195.779 21.32C196.552 20.1733 197.659 19.2667 199.099 18.6C200.566 17.9333 202.339 17.6 204.419 17.6C206.072 17.6 207.512 17.8267 208.739 18.28C209.992 18.7067 211.032 19.2933 211.859 20.04C212.686 20.76 213.312 21.5467 213.739 22.4C214.166 23.2267 214.392 24.04 214.419 24.84C214.419 25.0267 214.352 25.2133 214.219 25.4C214.086 25.56 213.872 25.64 213.579 25.64H211.459C211.272 25.64 211.072 25.5867 210.859 25.48C210.672 25.3733 210.526 25.1733 210.419 24.88C210.259 23.7867 209.646 22.8667 208.579 22.12C207.512 21.3733 206.126 21 204.419 21C202.686 21 201.272 21.3333 200.179 22C199.112 22.6667 198.579 23.7067 198.579 25.12C198.579 26.0267 198.832 26.7867 199.339 27.4C199.846 27.9867 200.646 28.5067 201.739 28.96C202.832 29.4133 204.259 29.8933 206.019 30.4C208.152 30.9867 209.899 31.6133 211.259 32.28C212.619 32.92 213.619 33.7333 214.259 34.72C214.926 35.68 215.259 36.92 215.259 38.44C215.259 40.12 214.819 41.56 213.939 42.76C213.059 43.9333 211.819 44.84 210.219 45.48C208.646 46.0933 206.779 46.4 204.619 46.4ZM231.462 46.4C228.715 46.4 226.529 45.56 224.902 43.88C223.275 42.1733 222.382 39.8533 222.222 36.92C222.195 36.5733 222.182 36.1333 222.182 35.6C222.182 35.04 222.195 34.5867 222.222 34.24C222.329 32.3467 222.769 30.6933 223.542 29.28C224.315 27.84 225.369 26.7333 226.702 25.96C228.062 25.1867 229.649 24.8 231.462 24.8C233.489 24.8 235.182 25.2267 236.542 26.08C237.929 26.9333 238.982 28.1467 239.702 29.72C240.422 31.2933 240.782 33.1333 240.782 35.24V35.92C240.782 36.2133 240.689 36.44 240.502 36.6C240.342 36.76 240.129 36.84 239.862 36.84H226.022C226.022 36.8667 226.022 36.92 226.022 37C226.022 37.08 226.022 37.1467 226.022 37.2C226.075 38.2933 226.315 39.32 226.742 40.28C227.169 41.2133 227.782 41.9733 228.582 42.56C229.382 43.1467 230.342 43.44 231.462 43.44C232.422 43.44 233.222 43.2933 233.862 43C234.502 42.7067 235.022 42.3867 235.422 42.04C235.822 41.6667 236.089 41.3867 236.222 41.2C236.462 40.8533 236.649 40.6533 236.782 40.6C236.915 40.52 237.129 40.48 237.422 40.48H239.342C239.609 40.48 239.822 40.56 239.982 40.72C240.169 40.8533 240.249 41.0533 240.222 41.32C240.195 41.72 239.982 42.2133 239.582 42.8C239.182 43.36 238.609 43.92 237.862 44.48C237.115 45.04 236.209 45.5067 235.142 45.88C234.075 46.2267 232.849 46.4 231.462 46.4ZM226.022 34.08H236.982V33.96C236.982 32.76 236.755 31.6933 236.302 30.76C235.875 29.8267 235.249 29.0933 234.422 28.56C233.595 28 232.609 27.72 231.462 27.72C230.315 27.72 229.329 28 228.502 28.56C227.702 29.0933 227.089 29.8267 226.662 30.76C226.235 31.6933 226.022 32.76 226.022 33.96V34.08ZM254.565 46.4C253.231 46.4 252.018 46.1333 250.925 45.6C249.831 45.0667 248.951 44.3467 248.285 43.44C247.618 42.5333 247.285 41.5067 247.285 40.36C247.285 38.52 248.031 37.0533 249.525 35.96C251.018 34.8667 252.965 34.1467 255.365 33.8L261.325 32.96V31.8C261.325 30.52 260.951 29.52 260.205 28.8C259.485 28.08 258.298 27.72 256.645 27.72C255.445 27.72 254.471 27.96 253.725 28.44C253.005 28.92 252.498 29.5333 252.205 30.28C252.045 30.68 251.765 30.88 251.365 30.88H249.565C249.271 30.88 249.045 30.8 248.885 30.64C248.751 30.4533 248.685 30.24 248.685 30C248.685 29.6 248.831 29.1067 249.125 28.52C249.445 27.9333 249.925 27.36 250.565 26.8C251.205 26.24 252.018 25.7733 253.005 25.4C254.018 25 255.245 24.8 256.685 24.8C258.285 24.8 259.631 25.0133 260.725 25.44C261.818 25.84 262.671 26.3867 263.285 27.08C263.925 27.7733 264.378 28.56 264.645 29.44C264.938 30.32 265.085 31.2133 265.085 32.12V45.08C265.085 45.3467 264.991 45.5733 264.805 45.76C264.645 45.92 264.431 46 264.165 46H262.325C262.031 46 261.805 45.92 261.645 45.76C261.485 45.5733 261.405 45.3467 261.405 45.08V43.36C261.058 43.84 260.591 44.32 260.005 44.8C259.418 45.2533 258.685 45.64 257.805 45.96C256.925 46.2533 255.845 46.4 254.565 46.4ZM255.405 43.4C256.498 43.4 257.498 43.1733 258.405 42.72C259.311 42.24 260.018 41.5067 260.525 40.52C261.058 39.5333 261.325 38.2933 261.325 36.8V35.68L256.685 36.36C254.791 36.6267 253.365 37.08 252.405 37.72C251.445 38.3333 250.965 39.12 250.965 40.08C250.965 40.8267 251.178 41.4533 251.605 41.96C252.058 42.44 252.618 42.8 253.285 43.04C253.978 43.28 254.685 43.4 255.405 43.4ZM274.955 46C274.688 46 274.462 45.92 274.275 45.76C274.115 45.5733 274.035 45.3467 274.035 45.08V26.16C274.035 25.8933 274.115 25.6667 274.275 25.48C274.462 25.2933 274.688 25.2 274.955 25.2H276.795C277.062 25.2 277.288 25.2933 277.475 25.48C277.662 25.6667 277.755 25.8933 277.755 26.16V27.92C278.288 27.0133 279.022 26.3333 279.955 25.88C280.888 25.4267 282.008 25.2 283.315 25.2H284.915C285.182 25.2 285.395 25.2933 285.555 25.48C285.715 25.64 285.795 25.8533 285.795 26.12V27.76C285.795 28.0267 285.715 28.24 285.555 28.4C285.395 28.56 285.182 28.64 284.915 28.64H282.515C281.075 28.64 279.942 29.0667 279.115 29.92C278.288 30.7467 277.875 31.88 277.875 33.32V45.08C277.875 45.3467 277.782 45.5733 277.595 45.76C277.408 45.92 277.182 46 276.915 46H274.955ZM300.44 46.4C298.546 46.4 296.906 46.04 295.52 45.32C294.16 44.5733 293.106 43.52 292.36 42.16C291.613 40.7733 291.213 39.12 291.16 37.2C291.133 36.8 291.12 36.2667 291.12 35.6C291.12 34.9333 291.133 34.4 291.16 34C291.213 32.08 291.613 30.44 292.36 29.08C293.106 27.6933 294.16 26.64 295.52 25.92C296.906 25.1733 298.546 24.8 300.44 24.8C301.986 24.8 303.306 25.0133 304.4 25.44C305.52 25.8667 306.44 26.4133 307.16 27.08C307.88 27.7467 308.413 28.4667 308.76 29.24C309.133 30.0133 309.333 30.7467 309.36 31.44C309.386 31.7067 309.306 31.92 309.12 32.08C308.933 32.24 308.706 32.32 308.44 32.32H306.52C306.253 32.32 306.053 32.2667 305.92 32.16C305.786 32.0267 305.653 31.8133 305.52 31.52C305.04 30.2133 304.386 29.2933 303.56 28.76C302.733 28.2267 301.706 27.96 300.48 27.96C298.88 27.96 297.573 28.4533 296.56 29.44C295.573 30.4267 295.04 32.0133 294.96 34.2C294.933 35.16 294.933 36.0933 294.96 37C295.04 39.2133 295.573 40.8133 296.56 41.8C297.573 42.76 298.88 43.24 300.48 43.24C301.706 43.24 302.733 42.9733 303.56 42.44C304.386 41.9067 305.04 40.9867 305.52 39.68C305.653 39.3867 305.786 39.1867 305.92 39.08C306.053 38.9467 306.253 38.88 306.52 38.88H308.44C308.706 38.88 308.933 38.96 309.12 39.12C309.306 39.28 309.386 39.4933 309.36 39.76C309.333 40.32 309.213 40.8933 309 41.48C308.786 42.0667 308.44 42.6667 307.96 43.28C307.506 43.8667 306.933 44.4 306.24 44.88C305.546 45.3333 304.706 45.7067 303.72 46C302.76 46.2667 301.666 46.4 300.44 46.4ZM318.27 46C318.003 46 317.777 45.92 317.59 45.76C317.43 45.5733 317.35 45.3467 317.35 45.08V18.52C317.35 18.2533 317.43 18.04 317.59 17.88C317.777 17.6933 318.003 17.6 318.27 17.6H320.27C320.563 17.6 320.79 17.6933 320.95 17.88C321.11 18.04 321.19 18.2533 321.19 18.52V27.84C321.91 26.9333 322.79 26.2 323.83 25.64C324.87 25.08 326.19 24.8 327.79 24.8C329.523 24.8 330.99 25.1867 332.19 25.96C333.417 26.7067 334.337 27.76 334.95 29.12C335.59 30.4533 335.91 32.0133 335.91 33.8V45.08C335.91 45.3467 335.83 45.5733 335.67 45.76C335.51 45.92 335.283 46 334.99 46H332.99C332.723 46 332.497 45.92 332.31 45.76C332.15 45.5733 332.07 45.3467 332.07 45.08V34C332.07 32.1333 331.617 30.68 330.71 29.64C329.803 28.5733 328.47 28.04 326.71 28.04C325.057 28.04 323.723 28.5733 322.71 29.64C321.697 30.68 321.19 32.1333 321.19 34V45.08C321.19 45.3467 321.11 45.5733 320.95 45.76C320.79 45.92 320.563 46 320.27 46H318.27Z" fill="white"/>
<line x1="99" y1="5" x2="99" y2="60" stroke="white" stroke-width="4"/>
</svg>
